<svg width="22" height="16" viewBox="0 0 22 16" fill="none" xmlns="http://www.w3.org/2000/svg">
<path d="M21.1499 2.38C21.027 1.92102 20.786 1.50225 20.4509 1.16539C20.1158 0.828527 19.6983 0.585329 19.2399 0.460007C17.5599 6.70552e-06 10.7999 0 10.7999 0C10.7999 0 4.03993 6.70552e-06 2.35993 0.460007C1.9016 0.585329 1.48409 0.828527 1.14898 1.16539C0.813872 1.50225 0.572857 1.92102 0.449929 2.38C-0.149976 5.84422 -0.149976 9.38579 0.449929 12.85C0.572815 13.3058 0.814327 13.7208 1.14985 14.0528C1.48537 14.3848 1.90292 14.6219 2.35993 14.74C4.03993 15.2 10.7999 15.2 10.7999 15.2C10.7999 15.2 17.5599 15.2 19.2399 14.74C19.6969 14.6219 20.1145 14.3848 20.45 14.0528C20.7855 13.7208 21.027 13.3058 21.1499 12.85C21.7498 9.38579 21.7498 5.84422 21.1499 2.38ZM8.58993 10.83V4.40001L14.2399 7.62001L8.58993 10.83Z" fill="white"/>
</svg>
