<svg width="22" height="21" viewBox="0 0 22 21" fill="none" xmlns="http://www.w3.org/2000/svg">
<path fill-rule="evenodd" clip-rule="evenodd" d="M21.1701 20.2328V12.4028C21.1701 8.21283 18.9301 6.26283 15.9501 6.26283C15.1278 6.22797 14.3116 6.41931 13.5905 6.81602C12.8694 7.21273 12.2709 7.79962 11.8601 8.51283V6.57282H7.32007C7.38007 7.85282 7.32007 20.2228 7.32007 20.2228H11.8401V12.5728C11.8225 12.1968 11.8733 11.8207 11.9901 11.4628C12.1607 10.9802 12.476 10.5619 12.8929 10.2648C13.3098 9.96777 13.8082 9.80644 14.3201 9.80282C15.9601 9.80282 16.6201 11.0528 16.6201 12.8928V20.1928L21.1701 20.2328Z" fill="white"/>
<path fill-rule="evenodd" clip-rule="evenodd" d="M2.53999 4.71313C2.99746 4.67813 3.43481 4.51055 3.79852 4.23089C4.16224 3.95123 4.43655 3.57162 4.58789 3.1385C4.73924 2.70538 4.76105 2.23754 4.65067 1.79221C4.54028 1.34689 4.30248 0.943389 3.96637 0.631095C3.63026 0.318802 3.2104 0.111248 2.75818 0.0338358C2.30596 -0.0435769 1.84098 0.0125133 1.42014 0.195228C0.999287 0.377943 0.640817 0.679361 0.388596 1.06261C0.136374 1.44587 0.00133659 1.89433 0 2.35313C0.00053448 2.67835 0.0679971 3 0.198196 3.29803C0.328396 3.59606 0.518547 3.8641 0.756805 4.08547C0.995063 4.30685 1.27634 4.4768 1.58311 4.58478C1.88989 4.69277 2.2156 4.73646 2.53999 4.71313Z" fill="white"/>
<path d="M4.81002 6.58301H0.27002V20.233H4.81002V6.58301Z" fill="white"/>
</svg>
