<svg width="10" height="21" viewBox="0 0 10 21" fill="none" xmlns="http://www.w3.org/2000/svg">
<path d="M9.72 6.762H6.41V4.592C6.3939 4.46367 6.40597 4.33336 6.44536 4.21017C6.48476 4.08697 6.55053 3.97384 6.6381 3.87866C6.72567 3.78347 6.83294 3.70851 6.95243 3.65901C7.07192 3.6095 7.20077 3.58664 7.33 3.592H9.67V0.0120022H6.45C5.86242 -0.0331674 5.27204 0.0494949 4.71946 0.254281C4.16688 0.459068 3.66522 0.781119 3.24899 1.1983C2.83276 1.61547 2.51184 2.11788 2.30832 2.67092C2.10479 3.22397 2.02349 3.81453 2.07 4.402V6.792H0V10.482H2.07V20.932H6.41V10.452H9.34L9.72 6.762Z" fill="white"/>
</svg>
