<svg width="20" height="20" viewBox="0 0 20 20" fill="none" xmlns="http://www.w3.org/2000/svg">
<path d="M9.77 0C7.11 0 6.77 0 5.77 0C4.95659 0.0198107 4.1522 0.175288 3.39 0.460007C2.73441 0.705032 2.14048 1.09075 1.65 1.59001C1.15222 2.08368 0.763807 2.67649 0.509995 3.33C0.229391 4.09645 0.0773469 4.90399 0.0599976 5.72C0.0599976 6.77 0 7.1 0 9.77C0 12.44 -2.44007e-06 12.77 0.0599976 13.82C0.0773469 14.636 0.229391 15.4436 0.509995 16.21C0.763807 16.8635 1.15222 17.4563 1.65 17.95C2.14048 18.4493 2.73441 18.835 3.39 19.08C4.1522 19.3647 4.95659 19.5202 5.77 19.54C6.77 19.54 7.16 19.6 9.77 19.6C12.38 19.6 12.77 19.6 13.83 19.54C14.6434 19.5202 15.4478 19.3647 16.21 19.08C16.8624 18.8288 17.455 18.4437 17.9493 17.9493C18.4437 17.455 18.8288 16.8625 19.08 16.21C19.3694 15.4456 19.525 14.6372 19.54 13.82C19.54 12.77 19.6 12.44 19.6 9.77C19.6 7.1 19.6 6.77 19.54 5.72C19.525 4.90284 19.3694 4.09436 19.08 3.33C18.8288 2.67756 18.4437 2.08503 17.9493 1.59068C17.455 1.09633 16.8624 0.711159 16.21 0.460007C15.4478 0.175288 14.6434 0.0198107 13.83 0C12.78 0.01 12.44 0 9.77 0ZM9.77 1.77C12.4 1.77 12.71 1.77001 13.77 1.82001C14.3944 1.83373 15.0124 1.94855 15.6 2.16C16.028 2.31756 16.4145 2.57065 16.73 2.90001C17.0574 3.21519 17.3073 3.60197 17.46 4.03C17.683 4.61096 17.7982 5.22772 17.8 5.85001C17.85 6.85001 17.86 7.20001 17.86 9.85001C17.86 12.5 17.86 12.78 17.8 13.85C17.7966 14.4754 17.6814 15.0951 17.46 15.68C17.304 16.1035 17.0545 16.4863 16.73 16.8C16.4145 17.1294 16.028 17.3824 15.6 17.54C15.0124 17.7515 14.3944 17.8663 13.77 17.88C12.77 17.93 12.43 17.94 9.77 17.94C7.11 17.94 6.84 17.94 5.77 17.88C5.14897 17.8656 4.53436 17.7507 3.95 17.54C3.52198 17.3824 3.13552 17.1294 2.82 16.8C2.49524 16.4846 2.24277 16.1025 2.08 15.68C1.86824 15.0928 1.75668 14.4742 1.75 13.85C1.75 12.85 1.68999 12.5 1.68999 9.85001C1.68999 7.20001 1.69 6.92001 1.75 5.85001C1.7553 5.22895 1.86691 4.61338 2.08 4.03C2.24002 3.60322 2.49276 3.21728 2.82 2.90001C3.13552 2.57065 3.52198 2.31756 3.95 2.16C4.53436 1.94927 5.14897 1.83446 5.77 1.82001C6.84 1.78001 7.15 1.77 9.77 1.77V1.77Z" fill="white"/>
<path d="M9.77007 13.1C9.12134 13.1 8.48719 12.9077 7.9478 12.5473C7.40841 12.1869 6.988 11.6746 6.73974 11.0752C6.49148 10.4759 6.42653 9.81641 6.55309 9.18015C6.67965 8.54389 6.99205 7.95945 7.45076 7.50074C7.90948 7.04202 8.49392 6.72962 9.13017 6.60306C9.76643 6.4765 10.4259 6.54145 11.0253 6.78971C11.6246 7.03796 12.1369 7.45838 12.4973 7.99778C12.8577 8.53717 13.0501 9.17132 13.0501 9.82004C13.0501 10.69 12.7045 11.5242 12.0894 12.1393C11.4743 12.7545 10.64 13.1 9.77007 13.1V13.1ZM9.77007 4.78004C8.78335 4.7899 7.82162 5.09152 7.00598 5.64689C6.19033 6.20226 5.55725 6.98657 5.18647 7.90102C4.81569 8.81548 4.72378 9.8192 4.92232 10.7858C5.12085 11.7524 5.60096 12.6386 6.30217 13.3329C7.00338 14.0271 7.89435 14.4984 8.86286 14.6873C9.83138 14.8762 10.8341 14.7743 11.7449 14.3945C12.6556 14.0146 13.4335 13.3737 13.9808 12.5526C14.528 11.7315 14.82 10.7668 14.8201 9.78004C14.8201 9.1192 14.6891 8.46491 14.4347 7.855C14.1803 7.24509 13.8076 6.69166 13.338 6.22671C12.8684 5.76175 12.3113 5.39451 11.6988 5.1462C11.0864 4.89789 10.4309 4.77343 9.77007 4.78004V4.78004Z" fill="white"/>
<path d="M16.2 4.57994C16.2 4.81332 16.1308 5.04147 16.0011 5.23552C15.8714 5.42957 15.6872 5.58081 15.4715 5.67012C15.2559 5.75943 15.0187 5.7828 14.7898 5.73727C14.5609 5.69174 14.3506 5.57936 14.1856 5.41433C14.0206 5.24931 13.9082 5.03905 13.8626 4.81015C13.8171 4.58125 13.8405 4.34399 13.9298 4.12837C14.0191 3.91275 14.1703 3.72847 14.3644 3.59881C14.5584 3.46915 14.7866 3.39995 15.02 3.39995C15.1753 3.39861 15.3293 3.42821 15.4731 3.48704C15.6169 3.54587 15.7475 3.63274 15.8573 3.74258C15.9672 3.85242 16.054 3.98303 16.1129 4.1268C16.1717 4.27056 16.2013 4.42461 16.2 4.57994V4.57994Z" fill="white"/>
</svg>
