<svg width="23" height="19" viewBox="0 0 23 19" fill="none" xmlns="http://www.w3.org/2000/svg">
<path d="M7 18.1062C8.70941 18.1141 10.4034 17.7833 11.9843 17.1328C13.5651 16.4823 15.0014 15.525 16.2101 14.3163C17.4188 13.1075 18.3761 11.6713 19.0266 10.0905C19.6771 8.50964 20.0079 6.8156 20 5.10619C20 4.90619 20 4.7062 20 4.5162C20.8942 3.86727 21.6662 3.06482 22.28 2.14619C21.4437 2.51465 20.5574 2.75728 19.65 2.86619C20.6032 2.29533 21.3146 1.39543 21.65 0.336188C20.751 0.86323 19.7712 1.23827 18.75 1.44619C18.1213 0.776154 17.3057 0.310691 16.409 0.110282C15.5123 -0.0901277 14.5761 -0.0162154 13.722 0.32241C12.8679 0.661035 12.1354 1.24872 11.6196 2.0091C11.1039 2.76948 10.8288 3.6674 10.83 4.58619C10.8339 4.92231 10.8708 5.25724 10.94 5.58619C9.12103 5.49446 7.34164 5.02154 5.71714 4.1981C4.09264 3.37465 2.65929 2.21905 1.50999 0.806189C0.929656 1.8153 0.753489 3.0069 1.01701 4.14077C1.28052 5.27463 1.96413 6.26643 2.93 6.91619C2.20106 6.89524 1.48778 6.69978 0.849998 6.3462V6.4062C0.852 7.46142 1.21832 8.48359 1.88702 9.29989C2.55573 10.1162 3.4858 10.6765 4.52 10.8862C3.84549 11.0727 3.13689 11.1001 2.45 10.9662C2.74829 11.8807 3.32518 12.679 4.09985 13.2492C4.87452 13.8195 5.80816 14.1331 6.77 14.1462C5.15889 15.4388 3.15557 16.1442 1.09 16.1462C0.725832 16.1464 0.36194 16.1264 0 16.0862C2.09339 17.4101 4.5232 18.1043 7 18.0862" fill="white"/>
</svg>
