<svg width="28" height="28" viewBox="0 0 28 28" fill="none" xmlns="http://www.w3.org/2000/svg">
<path d="M14 27.125C21.2487 27.125 27.125 21.2487 27.125 14C27.125 6.75126 21.2487 0.875 14 0.875C6.75126 0.875 0.875 6.75126 0.875 14C0.875 21.2487 6.75126 27.125 14 27.125Z" stroke="white" stroke-width="1.5"/>
<path d="M13.5945 0.914551V26.727" stroke="white" stroke-width="1.5"/>
<path d="M0.323486 14.1865H26.8127" stroke="white" stroke-width="1.5"/>
<path d="M13.4166 27.125C17.1215 27.125 20.1249 21.2487 20.1249 14C20.1249 6.75126 17.1215 0.875 13.4166 0.875C9.71168 0.875 6.70825 6.75126 6.70825 14C6.70825 21.2487 9.71168 27.125 13.4166 27.125Z" stroke="white" stroke-width="1.5"/>
<path d="M3.16968 6.66284C3.16968 6.66284 6.22315 9.98435 13.754 9.96802C21.2848 9.95168 25.2292 7.22168 25.2292 7.22168" stroke="white" stroke-width="1.5"/>
<path d="M25.2314 21.636C25.2314 21.636 21.4875 18.486 13.9567 18.5C6.42587 18.514 3.17188 21.076 3.17188 21.076" stroke="white" stroke-width="1.5"/>
</svg>
