<svg width="59" height="120" viewBox="0 0 59 120" fill="none" xmlns="http://www.w3.org/2000/svg">
<g clip-path="url(#clip0)">
<path d="M0.0400391 60.8599V89.4999H28.64V60.8599H0.0400391ZM21.35 76.7599C21.35 82.6399 18.24 85.0199 14.13 85.0199C10.21 85.0199 7.26004 82.7999 7.26004 76.8399V65.6099H9.74004V76.9398C9.74004 81.1898 11.64 83.0199 14.2 83.0199C17 83.0199 18.86 81.1498 18.86 76.9398V65.6099H21.35V76.7599Z" fill="white"/>
<path d="M30.39 60.8599V89.4999H59V60.8599H30.39ZM51.86 84.8599H49.37L43.37 75.1599C42.0605 73.1042 40.8783 70.9702 39.83 68.7699H39.76C39.91 71.1899 39.91 73.4899 39.91 76.6799V84.8599H37.58V65.7198H40.3L46.39 75.3899C47.6763 77.3828 48.8192 79.4647 49.81 81.6199H49.89C49.65 79.0499 49.62 76.7499 49.62 73.7899V65.7899H51.94V84.8599H51.86Z" fill="white"/>
<path d="M44.21 97.9401C43.4289 97.9357 42.649 98.0027 41.88 98.1402V105.58C42.5352 105.733 43.2078 105.796 43.88 105.77C46.88 105.77 48.65 104.29 48.65 101.72C48.65 99.1501 46.93 97.9401 44.21 97.9401Z" fill="white"/>
<path d="M30.39 91.3198V119.96H59V91.3198H30.39ZM49.68 105.54C48.9033 106.267 47.9869 106.829 46.9865 107.192C45.9861 107.555 44.9224 107.71 43.86 107.65C43.1896 107.666 42.5193 107.612 41.86 107.49V115.17H39.38V96.3098C40.9403 96.0268 42.5244 95.8962 44.11 95.9198C46.0327 95.775 47.9413 96.3447 49.47 97.5198C50.0307 98.0206 50.4745 98.6384 50.77 99.3296C51.0655 100.021 51.2055 100.769 51.18 101.52C51.221 102.257 51.1088 102.995 50.8507 103.687C50.5925 104.379 50.1939 105.01 49.68 105.54V105.54Z" fill="white"/>
<path d="M12.46 97.8601C11.4927 97.8366 10.526 97.9273 9.57996 98.13V113.25C10.406 113.35 11.2384 113.387 12.07 113.36C17.35 113.36 20.18 110.36 20.18 105.26C20.26 100.63 17.7 97.8601 12.46 97.8601Z" fill="white"/>
<path d="M0 91.3599V120H28.6V91.3599H0ZM20.07 112.55C18.24 114.35 15.29 115.32 11.6 115.32C10.0964 115.352 8.59252 115.275 7.1 115.09V96.2699C8.84719 96.0028 10.6125 95.8724 12.38 95.8799C15.91 95.8799 18.38 96.6598 20.1 98.2198C21.0232 99.1044 21.7442 100.178 22.2137 101.367C22.6831 102.557 22.89 103.833 22.82 105.11C22.8755 106.47 22.6611 107.828 22.1891 109.105C21.7171 110.382 20.9969 111.553 20.07 112.55V112.55Z" fill="white"/>
<path d="M35.86 21.27V21.35C35.13 22.09 34.35 22.87 33.65 23.64C33.6939 23.7365 33.763 23.8194 33.85 23.88C33.85 23.68 33.96 23.53 34 23.33C34.2 23.06 34.47 23.26 34.7 23.33C35.0784 23.3218 35.4566 23.3486 35.83 23.41C36.1 23.57 36.14 23.92 36.41 24.07C36.49 24.19 36.41 24.31 36.33 24.39C36.41 24.97 36.68 24.23 36.99 24.39C37.1321 24.3998 37.268 24.452 37.38 24.54C37.38 24.78 37.73 24.74 37.73 24.97C37.73 25.2 37.57 25.13 37.49 25.17C37.57 25.4 37.26 25.55 37.38 25.79C37.84 25.87 37.84 25.36 38.08 25.13C37.9925 24.709 37.8478 24.3019 37.65 23.92C37.38 23.92 37.22 23.57 36.99 23.49C36.49 23.3 37.07 22.98 36.99 22.67C36.64 22.16 36.21 21.74 35.86 21.27Z" fill="white"/>
<path d="M38.81 29.6499C38.5162 30.7148 38.0573 31.7271 37.45 32.6499C37.18 32.9599 36.95 33.4199 36.6 33.6499L37.3 34.2699C37.3 34.2699 37.3 34.1599 37.3 34.1199C37.3 34.0799 37.3 33.9199 37.45 33.9199C37.8 33.9199 37.8 34.2699 38 34.4699C38 34.7799 38.23 35.0099 38.11 35.2899C40.0299 33.2435 41.1482 30.5738 41.26 27.7699L41.37 27.6499C40.6472 27.6903 39.9227 27.6903 39.2 27.6499H39.05C39.0448 28.1189 39.0047 28.5869 38.93 29.0499L39.2 29.3199C39.2389 29.3718 39.26 29.435 39.26 29.4999C39.26 29.5648 39.2389 29.628 39.2 29.6799C39.1381 29.7097 39.0694 29.7226 39.0009 29.7173C38.9325 29.712 38.8666 29.6888 38.81 29.6499Z" fill="white"/>
<path d="M36.06 37.1299L36.17 36.9698C36.6734 36.626 37.1422 36.2342 37.57 35.7999V35.7999C37.49 35.7999 37.38 35.8799 37.26 35.7999C37.1644 35.7491 37.087 35.6699 37.0386 35.5731C36.9902 35.4763 36.9732 35.3668 36.99 35.2599L35.99 34.2599V34.1099C35.9064 34.2857 35.7872 34.4423 35.64 34.5699C35.64 34.6899 35.64 34.8899 35.76 34.9599C35.88 35.0299 36.49 35.2799 36.53 35.6299C36.57 35.9799 35.76 36.2899 36.14 36.6799C36.33 36.8599 35.98 36.9699 36.06 37.1299Z" fill="white"/>
<path d="M30.39 33.0001C30.58 33.0001 30.47 33.2701 30.58 33.3501C30.89 33.2301 31.17 33.6201 31.4 33.3501C31.4 32.9601 31.79 33.0001 32.02 32.9201C32.2216 32.8401 32.3954 32.7027 32.5198 32.525C32.6442 32.3472 32.7138 32.137 32.72 31.9201V31.8501C32.49 31.8501 32.33 32.0401 32.18 32.2001C32.03 32.3601 31.83 31.9601 31.67 32.0401C31.67 32.0401 31.67 32.0401 31.75 32.1201C31.7788 32.1515 31.7948 32.1925 31.7948 32.2351C31.7948 32.2777 31.7788 32.3187 31.75 32.3501C31.48 32.5901 31.36 32.2401 31.09 32.2701V32.3501C31.09 32.3501 31.09 32.5101 31.01 32.4701C30.86 32.2001 30.55 32.3101 30.39 32.0801C30.3424 32.0616 30.2902 32.0595 30.2413 32.0739C30.1924 32.0884 30.1497 32.1187 30.12 32.1601C30.12 32.2701 29.81 32.1601 29.89 32.3501C29.69 32.4301 29.65 32.6301 29.54 32.7801C29.3 32.7801 29.19 33.0101 28.96 33.0101C28.96 33.0101 28.96 33.1301 29.03 33.1301C29.1806 33.1918 29.3494 33.1918 29.5 33.1301C29.69 32.8001 30.08 33.1101 30.39 33.0001Z" fill="white"/>
<path d="M28.99 39.9699L29.07 39.8499L28.84 39.93C25.8386 39.7909 22.9924 38.5564 20.84 36.46V36.5399L19.25 38.18C21.588 40.3036 24.5119 41.6731 27.64 42.11C28.1612 42.1353 28.6795 42.2021 29.19 42.31L29.07 42.11L28.99 39.9699Z" fill="white"/>
<path d="M30.46 24.35C30.65 24.46 30.73 24.27 30.89 24.23C31.1037 24.284 31.2935 24.4071 31.43 24.58C31.58 24.66 31.7 24.5801 31.82 24.5001C31.9 23.8401 32.71 23.96 32.98 23.33H32.83C32.75 23.25 32.59 23.33 32.63 23.14C32.768 22.989 32.9262 22.8578 33.1 22.7501C32.4061 22.3026 31.6471 21.9653 30.85 21.7501C30.535 21.7148 30.2237 21.6512 29.92 21.5601C30.07 22.0301 29.92 22.69 30.03 23.2L30.61 23.39C30.77 23.12 31.16 23.0801 31.31 22.8101C31.3614 22.7819 31.4212 22.7735 31.4783 22.7864C31.5354 22.7993 31.5858 22.8326 31.62 22.88C31.6314 23.0925 31.6077 23.3053 31.55 23.51C31.21 24 30.7 24.03 30.46 24.35Z" fill="white"/>
<path d="M35.46 32.3298C35.46 32.6098 35.19 32.7198 35.23 32.9598C35.1709 33.0052 35.1033 33.0383 35.0311 33.0572C34.959 33.0761 34.8839 33.0804 34.81 33.0698C34.1654 32.8329 33.4934 32.6784 32.81 32.6098C32.73 32.6098 32.69 32.6798 32.73 32.7598C33.0311 32.8781 33.3424 32.9685 33.66 33.0298C33.93 33.1098 34.13 33.4198 34.44 33.3498C34.75 33.2798 35.17 33.4198 35.37 33.1498C35.37 32.8798 35.6 32.6398 35.72 32.4098H35.79C35.95 32.5698 35.9501 32.8398 36.0301 32.9998C36.2601 32.7598 36.42 32.4898 36.61 32.2598C37.1427 31.5317 37.536 30.7112 37.77 29.8398C37.5578 29.8419 37.3477 29.8826 37.15 29.9598C36.92 29.9598 36.65 30.0698 36.45 29.9598C36.25 29.8498 36.34 29.9598 36.34 30.0398C36.34 30.1198 36.18 30.3098 35.99 30.2298C35.8 30.1498 35.83 30.0398 35.79 29.9198C35.79 29.9998 35.79 30.0798 35.79 30.1498C35.6472 30.3151 35.5293 30.5004 35.44 30.6998C35.28 30.8898 35.01 30.8198 34.82 30.9698C34.82 31.3598 34.35 31.2798 34.12 31.3998C34.12 31.3998 34.12 31.3998 34.19 31.4798C34.2489 31.5077 34.3154 31.515 34.3789 31.5005C34.4424 31.486 34.4992 31.4505 34.54 31.3998C34.89 31.4798 34.82 31.0498 35.01 30.9298C35.2 30.8098 35.32 30.7798 35.51 30.9298C35.6582 31.1618 35.7283 31.4352 35.71 31.7098C35.51 31.7898 35.63 32.0998 35.46 32.3298Z" fill="white"/>
<path d="M31.87 31.5198C32.06 31.3198 32.45 31.3198 32.49 31.0498C32.21 31.0498 32.06 31.1598 31.87 31.3198C31.83 31.3598 31.75 31.4798 31.87 31.5198Z" fill="white"/>
<path d="M29.92 39.1098C30.5506 38.9807 31.1884 38.8905 31.83 38.8398C31.6994 38.8066 31.5791 38.7413 31.48 38.6498C31.09 38.6498 30.93 38.2198 30.82 37.9398C30.8126 37.736 30.8648 37.5344 30.97 37.3598C30.82 37.0498 30.31 37.2798 30.04 37.1698C29.96 37.1698 29.89 37.0098 29.77 37.0098L29.89 37.1698C29.9547 37.8144 29.9647 38.4634 29.92 39.1098V39.1098Z" fill="white"/>
<path d="M38.23 36.27C37.9236 36.6605 37.5554 36.9982 37.14 37.27C36.64 37.78 35.79 37.89 35.55 38.63C35.28 38.87 35.16 39.3 34.82 39.41C34.66 39.8 34.27 39.76 34.04 40.04C33.38 40.62 32.95 39.65 32.37 39.53L31.17 39.72C30.7572 39.7999 30.3329 39.7999 29.92 39.72C29.92 40.54 29.92 41.4 29.92 42.18L30.08 42.1C33.7661 41.9627 37.274 40.4791 39.94 37.93L38.27 36.33L38.23 36.27Z" fill="white"/>
<path d="M36.83 27.54L37.07 27.7801C37.3 27.9301 37.14 28.28 37.42 28.44C37.7 28.6 37.84 28.94 37.96 29.22C37.96 29.14 37.96 29.06 38.04 28.98C38.0931 28.523 38.1699 28.0691 38.27 27.6201C37.7925 27.7348 37.2918 27.707 36.83 27.54V27.54Z" fill="white"/>
<path d="M32.37 19.0099C31.5441 18.7671 30.702 18.5833 29.85 18.46L29.92 18.62V20.7599H30.12C31.409 20.9039 32.6319 21.4063 33.65 22.21V22.36C34.0609 21.8667 34.5017 21.3992 34.97 20.96L35.36 20.7299H35.16C34.3304 20.0078 33.3878 19.4267 32.37 19.0099V19.0099Z" fill="white"/>
<path d="M28.64 32.8C28.64 32.61 28.64 32.33 28.72 32.14C28.8 31.95 28.99 31.98 29.19 32.02C29.2116 32.0189 29.2324 32.0115 29.2498 31.9987C29.2672 31.986 29.2805 31.9684 29.2879 31.9481C29.2954 31.9279 29.2967 31.9059 29.2918 31.8849C29.2868 31.8638 29.2758 31.8447 29.2601 31.83C29.0301 31.83 29.1501 31.52 29.0701 31.4C28.9901 31.28 29.23 31.32 29.19 31.24C29.15 31.16 29.26 30.9699 29.19 30.8499L29.3 30.74C29.0615 30.7904 28.8152 30.7916 28.5761 30.7435C28.3371 30.6953 28.1105 30.5988 27.91 30.46C27.71 30.35 27.4 30.23 27.36 29.96C26.9214 30.5136 26.4435 31.0349 25.9301 31.52C26.7051 32.1775 27.6399 32.619 28.64 32.8V32.8Z" fill="white"/>
<path d="M17.74 27.8599L17.89 29.3099C18.0318 29.8452 18.1354 30.3899 18.2 30.9399C18.28 30.8199 18.2 30.5899 18.43 30.5499C18.36 30.3999 18.59 30.2399 18.43 30.0799C18.4502 29.6835 18.6178 29.309 18.9 29.0299C19.29 29.0299 19.33 28.4899 19.71 28.4499C19.91 28.4499 20.06 28.7199 20.14 28.7999C20.0301 28.6281 19.9597 28.434 19.9337 28.2317C19.9078 28.0294 19.927 27.8239 19.99 27.6299L19.83 27.7099C19.1073 27.7503 18.3828 27.7503 17.66 27.7099L17.74 27.8599Z" fill="white"/>
<path d="M26.78 29.37L26.5099 29.25C26.4516 29.4436 26.3449 29.6191 26.2 29.76C26.46 29.64 26.55 29.41 26.78 29.37Z" fill="white"/>
<path d="M20.3 35.8599C20.0361 35.631 19.7889 35.3838 19.56 35.1199C19.4198 35.0874 19.2882 35.025 19.1743 34.937C19.0604 34.849 18.9668 34.7374 18.9 34.6099C18.82 34.5299 18.9 34.3799 18.82 34.2999L18.75 34.4199C18.47 34.5299 18.36 34.2599 18.16 34.1399C17.96 34.0199 18.05 33.5599 17.7 33.6399C17.58 33.6399 17.54 33.4799 17.46 33.3999C17.15 33.3999 17.08 33.0899 16.92 32.9399C16.92 33.0099 16.92 33.0899 16.84 33.1299C16.53 33.2099 16.42 32.8199 16.22 32.6599C16.2024 32.6834 16.1799 32.7028 16.1539 32.7166C16.128 32.7304 16.0994 32.7384 16.07 32.7399C15.9709 32.6613 15.8914 32.5608 15.8376 32.4463C15.7838 32.3318 15.7573 32.2064 15.76 32.0799C15.48 31.8099 15.6 31.3399 15.68 30.9499C15.68 30.8699 15.87 30.7899 15.83 30.6799C15.8742 30.6081 15.9385 30.5508 16.0149 30.5153C16.0914 30.4797 16.1766 30.4674 16.26 30.4799C16.3316 30.5112 16.3887 30.5683 16.42 30.6399C16.53 30.5599 16.73 30.6399 16.65 30.3999C16.8013 30.3018 16.9717 30.237 17.15 30.2099C17.2565 30.3835 17.3734 30.5504 17.5 30.7099L17.39 30.5599C17.1793 29.7819 17.0486 28.9844 17 28.1799C17 28.1799 16.88 28.0999 17 28.0699C16.9783 27.9307 16.9783 27.7891 17 27.6499L16.8 27.7199H14.63C14.7299 30.1523 15.394 32.5282 16.57 34.6599C17.1848 35.7169 17.8873 36.7204 18.67 37.6599L20.22 36.0199L20.3 35.8599Z" fill="white"/>
<path d="M28.8 36.8602C26.947 36.7635 25.1692 36.0963 23.71 34.9502C23.71 35.1502 24.02 35.2602 23.95 35.5002C23.8736 35.5851 23.7756 35.6476 23.6664 35.6811C23.5571 35.7146 23.4409 35.7177 23.33 35.6902C22.86 35.6102 22.55 35.9602 22.12 36.0002C21.69 36.0402 21.62 35.6502 21.27 35.6902C23.3542 37.6244 26.0424 38.7795 28.88 38.9602L29.11 39.1202L29.03 38.8502V36.8602H28.8Z" fill="white"/>
<path d="M22.82 17.49C22.32 17.84 21.89 18.27 21.38 18.58C21.961 19.0191 22.497 19.5149 22.98 20.06V20.22C24.2856 18.9748 25.9321 18.1464 27.71 17.84C28.1152 17.7392 28.5352 17.712 28.95 17.76C28.895 17.0076 28.895 16.2523 28.95 15.5C26.7578 15.5599 24.6294 16.2508 22.82 17.49Z" fill="white"/>
<path d="M25.0301 29.0198C24.9601 29.0198 24.9601 29.0198 24.8801 29.0198H24.7601C24.7601 28.5498 24.2601 28.8298 24.0601 28.5898C24.3001 29.0198 24.4101 29.4498 24.6501 29.8798C24.8901 30.3098 25.1101 30.5398 25.2301 30.8798C25.4353 30.6077 25.6556 30.3473 25.89 30.0998C25.8982 30.0454 25.8953 29.99 25.8816 29.9367C25.8678 29.8834 25.8435 29.8335 25.8101 29.7898C25.7301 29.6298 25.81 29.3998 25.69 29.2398C25.5 29.3198 25.77 29.5198 25.69 29.6298C25.61 29.7398 25.5 29.6298 25.5 29.5598C25.4134 29.5335 25.3336 29.4885 25.2663 29.4281C25.1989 29.3676 25.1456 29.2931 25.11 29.2098C25.23 29.1398 25.0701 29.0998 25.0301 29.0198Z" fill="white"/>
<path d="M20.96 25.7101C20.9357 26.1062 20.8687 26.4985 20.76 26.8801C21.088 26.7954 21.4321 26.7954 21.76 26.8801C21.57 26.8001 21.76 26.5701 21.65 26.4101C21.6196 26.3118 21.6137 26.2075 21.6329 26.1064C21.652 26.0053 21.6957 25.9104 21.76 25.8301C21.76 25.5201 22.07 25.3201 22.11 25.0501C22.15 24.7801 22.58 24.9301 22.77 24.7801C22.96 24.6301 22.77 24.6201 22.77 24.5001C22.93 24.3101 23.16 24.3101 23.36 24.1901C23.4865 23.9635 23.6734 23.7766 23.9 23.6501C24.36 23.6501 24.36 22.9801 24.83 22.9801C24.2112 22.4762 23.6266 21.9316 23.08 21.3501C22.0292 22.6093 21.3014 24.106 20.96 25.7101V25.7101Z" fill="white"/>
<path d="M20.7999 19.2398L19.95 20.3298C18.5956 22.2564 17.8154 24.5276 17.7 26.8798H19.8299L20.03 26.9598C19.95 26.9598 19.95 26.7998 19.95 26.7198C20.0545 24.4986 20.944 22.3866 22.4599 20.7598C21.8568 20.2517 21.2981 19.693 20.7899 19.0898L20.7999 19.2398Z" fill="white"/>
<path d="M21.27 28.9101C21.27 28.7501 21.07 28.7101 21.11 28.5901C21.27 28.3201 21.11 27.8101 21.5 27.7001C21.23 27.7001 21 27.8101 20.76 27.6201L20.88 27.8101C20.9757 28.3243 21.0159 28.8473 21 29.3701C21.0086 29.2784 21.0373 29.1896 21.0839 29.1101C21.1306 29.0307 21.1941 28.9624 21.27 28.9101V28.9101Z" fill="white"/>
<path d="M22.0799 27.7L22.0099 28.13C21.9299 28.36 21.6199 28.2 21.4599 28.36C21.2999 28.52 21.4599 28.67 21.5399 28.83C21.3099 29.33 22.0399 29.49 22.0399 29.96C22.2799 30.23 22.0399 30.66 22.3199 30.89C22.3899 31.4 22.2399 32.1 22.6999 32.49L22.7799 33C22.8599 33.35 22.3899 33.23 22.4299 33.54C22.5099 33.54 22.5499 33.62 22.5499 33.66C23.1783 32.934 23.846 32.243 24.5499 31.59L24.2399 31.28C23.665 30.4709 23.254 29.557 23.0299 28.59L22.7999 28.48C22.7999 28.71 22.6799 28.94 22.6799 29.18C22.5199 29.18 22.3999 29.02 22.2499 28.94C22.0999 28.86 22.1299 28.71 22.2499 28.63C22.3117 28.6101 22.3782 28.6101 22.4399 28.63C22.5199 28.55 22.4399 28.43 22.5199 28.32C22.5999 28.21 22.3699 27.97 22.5199 27.77C22.6799 27.77 22.7899 27.93 22.8299 28.05C22.8699 28.17 23.0999 27.97 23.2199 27.93C23.3399 27.89 23.4099 27.62 23.2199 27.54C23.3 27.2318 23.3 26.9082 23.2199 26.6C23.1399 26.33 22.8299 26.41 22.6399 26.41C22.0199 26.6 22.7499 27.11 22.6399 27.5C22.4599 27.86 22.2399 27.62 22.0799 27.7Z" fill="white"/>
<path d="M27.46 33.9701C27.6206 33.7971 27.8191 33.6636 28.04 33.5801C27.34 33.7401 26.72 33.2301 26.14 32.9601C25.7491 32.7656 25.4073 32.4853 25.14 32.1401C24.6803 32.7259 24.1608 33.2621 23.59 33.7401C23.82 33.7401 23.98 34.0101 24.17 34.1301C25.3534 35.0172 26.72 35.6288 28.17 35.9201L27.78 35.7601C27.51 35.4501 27.08 35.0601 27.08 34.5901C27.4 34.4801 27.36 34.1601 27.46 33.9701Z" fill="white"/>
<path d="M38.46 18.5001C38.62 18.5001 38.66 18.74 38.77 18.85C39.36 19.16 39.51 19.79 40.02 20.14C40.29 20.72 40.95 21.19 41.02 21.85C41.7583 23.385 42.1671 25.0575 42.22 26.76L42.14 26.8401C42.22 26.8401 42.26 26.84 42.34 26.76H44.59C44.43 26.53 44.51 26.22 44.47 25.94C44.1387 22.5145 42.6789 19.2959 40.32 16.79C39.8435 17.3827 39.3255 17.9408 38.77 18.4601L38.46 18.5001Z" fill="white"/>
<path d="M16.96 26.8598V26.5498C17.0943 24.1238 17.9163 21.786 19.33 19.8098C19.6207 19.3731 19.9558 18.9676 20.33 18.5998C19.82 18.1298 19.33 17.5498 18.74 17.0398V16.8398C16.5449 19.2288 15.147 22.2412 14.74 25.4598C14.66 25.9198 14.74 26.4598 14.62 26.8998C15.3955 26.7923 16.1812 26.7789 16.96 26.8598V26.8598Z" fill="white"/>
<path d="M20.9201 18.03V17.92C23.0916 15.8636 25.9322 14.6599 28.9201 14.53L28.8401 14.33V12.42L28.91 12.1899C25.8539 12.3235 22.9076 13.3683 20.4501 15.1899C19.9901 15.4999 19.56 16.0099 19.05 16.3199H19.1301C19.7733 16.8391 20.372 17.4111 20.9201 18.03Z" fill="white"/>
<path d="M28.99 21.6602C27.7129 21.7463 26.5175 22.319 25.65 23.2602H25.81C26 23.4502 26.31 23.4102 26.43 23.6402C26.55 23.8702 26.31 23.7602 26.31 23.8802C26.31 24.0002 26.39 23.8802 26.43 23.9602C26.47 24.0402 26.55 23.8802 26.59 23.8002C26.78 23.6102 26.82 24.0002 27.01 24.0002C27.0722 23.9539 27.1476 23.9289 27.225 23.9289C27.3025 23.9289 27.3779 23.9539 27.44 24.0002C27.56 23.8902 27.83 24.0002 27.87 23.8102C28.1 23.5402 27.98 23.1502 28.33 22.9902C28.45 23.0702 28.33 23.1902 28.33 23.3002C28.56 23.4202 28.84 23.1102 29.03 23.3002C28.9462 22.7575 28.9327 22.2063 28.99 21.6602V21.6602Z" fill="white"/>
<path d="M0.0400391 0V59.1H59.04V0H0.0400391ZM50.61 30.77C49.8 31.94 48.79 33.03 48.01 34.24C48.1758 33.2408 48.1246 32.2177 47.86 31.24C47.1675 29.3018 46.7109 27.2873 46.5 25.24V24.42C46.96 26.61 49.1 28.09 48.98 30.5C48.9879 31.0421 48.9103 31.582 48.75 32.1V32.1L48.83 31.98C49.0539 30.7718 49.3887 29.5867 49.83 28.44C50.52 26.84 51.38 25.2 51.03 23.29C51.5086 24.4922 51.719 25.7844 51.6465 27.0764C51.5739 28.3683 51.2202 29.6289 50.61 30.77V30.77ZM49.33 18.5C50.0304 19.5213 50.4618 20.7029 50.5841 21.9352C50.7065 23.1676 50.5159 24.4109 50.03 25.55C49.6353 26.4857 49.3728 27.4718 49.25 28.48C49.18 28.32 49.18 28.05 49.1 27.85C48.56 25.75 46.54 24.23 45.72 22.2C45.4589 21.5514 45.2515 20.8825 45.1 20.2C45.99 21.83 48.17 22.69 48.75 24.48C48.9163 24.9766 49.0466 25.4846 49.14 26C49.1661 26.0078 49.1939 26.0078 49.22 26C48.968 24.1367 48.9916 22.2464 49.29 20.39C49.3566 19.4369 49.126 18.4866 48.63 17.67C48.91 17.8 49.06 18.19 49.33 18.5ZM48.33 18.15C48.72 19.79 48.18 21.42 48.49 23.1C47.6 21.35 45.69 20.49 44.37 19.1C43.6632 18.2442 43.2188 17.2024 43.09 16.1C43.83 17.93 45.89 18.32 47.09 19.84C47.4011 20.219 47.6631 20.6356 47.87 21.08V21.08C47.3158 19.5953 46.8615 18.0753 46.51 16.53C46.2722 15.8266 45.808 15.2217 45.19 14.81C45.9654 15.031 46.6661 15.4584 47.2174 16.0467C47.7687 16.635 48.1498 17.362 48.32 18.15H48.33ZM44.26 14.37C45.2948 15.3818 45.9931 16.6876 46.26 18.11L46.45 18.54C44.7676 17.3011 43.3213 15.7701 42.18 14.02L40.86 12.7C42.0852 13.038 43.2354 13.6046 44.25 14.37H44.26ZM22.37 13.09C24.5941 11.9971 27.0323 11.4097 29.51 11.37C31.9404 11.3963 34.3325 11.9784 36.5032 13.0716C38.6739 14.1649 40.5657 15.7403 42.0337 17.6774C43.5017 19.6145 44.507 21.8618 44.9726 24.2472C45.4382 26.6327 45.3518 29.093 44.72 31.44C44.1919 33.4713 43.2644 35.3771 41.9916 37.046C40.7188 38.7149 39.1262 40.1135 37.3069 41.1601C35.4876 42.2067 33.478 42.8803 31.3954 43.1416C29.3129 43.4029 27.1991 43.2467 25.1776 42.682C23.1561 42.1174 21.2674 41.1556 19.6217 39.8529C17.9761 38.5502 16.6065 36.9326 15.5929 35.0947C14.5793 33.2568 13.942 31.2354 13.7183 29.1485C13.4946 27.0615 13.689 24.9509 14.29 22.94C14.8849 20.8312 15.9087 18.8679 17.2973 17.173C18.6859 15.4781 20.4095 14.0881 22.36 13.09H22.37ZM17.82 12.93C16.749 13.991 15.7998 15.1683 14.99 16.44C14.1634 17.2998 13.2815 18.1049 12.35 18.85C12.82 17.85 12.86 16.71 13.52 15.85C14.51 14.1 16.26 13.52 17.81 12.93H17.82ZM11.54 16.44C12.0511 15.7588 12.7711 15.2636 13.59 15.03C12.04 16.13 12.16 18.03 11.65 19.63C11.5 20.22 11.23 20.76 11.07 21.39C11.3573 20.6731 11.7936 20.0255 12.35 19.49C13.48 18.49 15.11 17.81 15.65 16.33C15.65 18.43 13.86 20.07 12.19 21.28C11.4789 21.8442 10.8874 22.5445 10.45 23.34C10.45 22.8 10.53 22.29 10.45 21.71C10.36 19.86 10.21 17.8 11.53 16.44H11.54ZM8.35004 22.71C8.36223 20.9568 9.01281 19.2682 10.18 17.96C10.18 17.96 10.18 17.96 10.26 17.96C9.05004 19.79 10.06 22.09 9.98003 24.15L9.83004 26.26C9.83004 26.26 9.83003 26.33 9.91003 26.26C9.96062 26.0156 9.99735 25.7685 10.02 25.52C10.29 23.8 11.77 22.59 13.09 21.42C13.3583 21.1211 13.5807 20.7841 13.75 20.42C13.6212 21.2805 13.3721 22.1187 13.01 22.91C12.01 24.91 10.14 26.5 9.79004 28.76C9.66004 26.65 8.19003 25.01 8.34003 22.71H8.35004ZM7.46004 25.36C7.55019 24.7703 7.71833 24.1953 7.96004 23.65C7.50004 26.1 9.13004 27.89 9.67004 30C9.82612 30.8155 10.0332 31.6204 10.29 32.41C10.29 32.41 10.29 32.41 10.37 32.41C9.56004 30.15 10.72 28.05 11.89 26.26C12.1596 25.7716 12.3551 25.2458 12.47 24.7C12.5079 25.7968 12.4173 26.8942 12.2 27.97C11.92 29.33 11.5 30.62 11.11 31.91C10.9149 32.769 10.9149 33.6609 11.11 34.52L10.99 34.44C10.14 32.84 8.43004 31.63 7.93004 29.88C7.41427 28.4325 7.25309 26.8826 7.46004 25.36V25.36ZM7.38004 30.19C7.58004 32.8 10.38 34.19 11.65 36.35C11.9398 36.809 12.2748 37.2378 12.65 37.63C12.5236 37.3629 12.3834 37.1026 12.23 36.85C11.7593 35.8963 11.5819 34.8245 11.72 33.77C11.84 32.45 12.42 31.2 12.19 29.77C13.31 32.23 12.96 35.3 13.62 37.99C13.8372 38.5625 14.0842 39.1233 14.36 39.67C12.03 38.07 8.81003 36.55 7.80003 33.67C7.40305 32.5556 7.25625 31.3675 7.37004 30.19H7.38004ZM8.78004 36.19C10.1 39.19 13.36 39.39 15.53 41.19C15.9062 41.5429 16.3388 41.8302 16.81 42.04V42.04C16.2673 41.5847 15.7865 41.0602 15.38 40.48C14.1 38.69 14.56 36.19 13.59 34.24C14.4602 35.2518 15.2024 36.3668 15.8 37.56C16.58 39.5 16.89 41.68 18.72 43.17C16.72 42.5 14.45 42.7 12.72 41.49C11.7236 40.9271 10.8569 40.1607 10.1764 39.2406C9.49579 38.3206 9.01662 37.2675 8.77003 36.15L8.78004 36.19ZM12.16 41.72C14.25 44.1 17.67 43.32 20.46 43.94C20.8432 44.0351 21.2354 44.0888 21.63 44.1C21.28 43.91 20.85 43.91 20.46 43.71C18.29 42.93 17.94 40.56 16.78 38.96C18.2778 40.0739 19.6793 41.3116 20.97 42.66C21.9749 43.4795 23.1792 44.0178 24.46 44.22C24.1136 44.2923 23.7629 44.3425 23.41 44.37C21.12 44.96 18.56 45.85 16.16 45.04C14.4393 44.4803 13.0022 43.2762 12.15 41.68L12.16 41.72ZM40.57 47.3C38.2 48.19 35.76 47.3 33.89 45.85C33.16 45.39 32.5 44.69 31.53 44.76C31.1946 44.7406 30.8581 44.7676 30.53 44.84C32.3848 45.6989 34.0765 46.873 35.53 48.31C35.2607 48.6116 34.9626 48.8862 34.64 49.13C33.2574 47.52 31.6022 46.166 29.75 45.13C29.3961 45.2196 29.0586 45.3648 28.75 45.56C27.208 46.518 25.8527 47.7479 24.75 49.19L23.82 48.41C25.2673 46.934 26.9589 45.7195 28.82 44.82C27.03 44.24 25.82 45.76 24.51 46.54C23.6846 47.1332 22.7291 47.52 21.7234 47.6679C20.7177 47.8158 19.6913 47.7205 18.73 47.39C17.6427 47.0152 16.6758 46.3556 15.93 45.48C16.7398 45.9896 17.6597 46.2981 18.613 46.3799C19.5663 46.4616 20.5253 46.3142 21.41 45.95C23.7 44.95 26.1 43.69 28.86 44.28C29.29 44.28 29.71 44.7 30.14 44.35C32.2236 43.8605 34.4138 44.1373 36.31 45.13L38.14 45.87C39.0154 46.1965 39.9549 46.3141 40.8837 46.2134C41.8125 46.1127 42.705 45.7965 43.49 45.29C42.7026 46.1917 41.6923 46.871 40.56 47.26L40.57 47.3ZM43.09 44.84C40.45 45.84 37.78 44.61 35.25 44.22L34.75 44.14C35.9828 43.953 37.1393 43.4267 38.09 42.62C39.4056 41.2189 40.8337 39.9279 42.36 38.76C41.19 40.28 41.07 42.43 39.13 43.36C38.6178 43.6095 38.086 43.8168 37.54 43.98C38.232 43.9158 38.9198 43.8123 39.6 43.67C42.2 43.24 45.15 43.67 46.97 41.45C46.1541 43.0267 44.7604 44.227 43.08 44.8L43.09 44.84ZM44.57 42.15C43.21 42.5 41.77 42.62 40.45 43.09C42.67 41.18 42.55 38.22 44.02 35.96C44.4517 35.2984 44.919 34.6608 45.42 34.05C44.53 35.88 44.92 38.22 43.87 39.97C43.439 40.6947 42.9032 41.3518 42.28 41.92C42.47 41.92 42.67 41.72 42.86 41.61C44.57 39.93 46.74 39.46 48.57 38.06C49.3159 37.4928 49.9017 36.7416 50.27 35.88C49.95 38.64 47.16 41.29 44.56 42.11L44.57 42.15ZM47.91 37.4C46.86 38.1 45.81 38.72 44.8 39.5V39.39C46.35 36.81 45.58 33.31 46.55 30.46L46.9 29.53C46.7 31.28 47.48 32.76 47.4 34.53C47.3517 35.5541 47.004 36.5415 46.4 37.37H46.46C47.2 36.37 47.82 35.3 48.67 34.37C50.03 33.04 51.43 31.68 51.62 29.85C52.13 32.92 50.46 35.61 47.9 37.36L47.91 37.4Z" fill="white"/>
<path d="M42.23 27.6598L42.11 27.5798L42.19 27.7698C42.0616 30.2946 41.1997 32.7273 39.71 34.7698C39.4463 35.1465 39.1297 35.4833 38.77 35.7698C39.3947 36.2995 39.9796 36.8744 40.52 37.4898L40.6 37.3698C42.9951 34.7186 44.3826 31.3101 44.52 27.7398L44.6 27.5498H44.48L42.23 27.6598Z" fill="white"/>
<path d="M28.88 18.5399C26.9458 18.7201 25.115 19.4957 23.64 20.7599C24.22 21.1899 24.76 21.8499 25.31 22.3199C25.341 22.266 25.3779 22.2157 25.42 22.17C26.1341 21.6 26.9528 21.1754 27.83 20.92C28.2187 20.804 28.626 20.7633 29.03 20.8C28.95 20.022 28.95 19.2379 29.03 18.46L28.88 18.5399Z" fill="white"/>
<path d="M29.85 14.2902C29.85 14.2202 29.85 14.1802 29.92 14.1002C29.99 14.0202 30.12 14.1002 30.16 14.2202C30.2 14.3402 30.16 14.5302 30.16 14.5702C30.24 14.5702 30.31 14.5702 30.39 14.5702C32.1517 14.6835 33.8632 15.2039 35.39 16.0902V16.0902C35.7 15.9302 36.09 15.7402 36.39 16.0102C36.78 15.8502 36.85 16.3202 37.13 16.4002C37.3334 16.5055 37.5113 16.6541 37.6513 16.8354C37.7912 17.0168 37.8897 17.2266 37.94 17.4502C38.02 17.6102 38.21 17.6802 38.25 17.8402C38.5656 17.3158 38.9759 16.8546 39.46 16.4802L39.73 16.3602C37.442 14.174 34.5174 12.773 31.38 12.3602C30.859 12.3329 30.3408 12.2661 29.83 12.1602C29.9413 12.8653 29.9481 13.583 29.85 14.2902ZM36.95 15.3802C37.0284 15.3901 37.1026 15.4215 37.1643 15.4709C37.2261 15.5203 37.273 15.5858 37.3 15.6602C37.3 15.8502 37.45 15.9702 37.3 16.1202C36.87 16.2402 36.83 15.7302 36.52 15.6202C36.44 15.6202 36.44 15.5002 36.44 15.4202C36.64 15.2302 36.79 15.5402 36.95 15.3802V15.3802ZM30.2 13.9402C30.27 13.8302 30.43 13.8602 30.55 13.9402L31.67 13.4402C31.8977 13.422 32.1266 13.4538 32.3408 13.5332C32.5549 13.6127 32.7492 13.7379 32.91 13.9002V13.9002C32.7849 14.0339 32.6255 14.1308 32.4492 14.1801C32.2728 14.2295 32.0863 14.2295 31.91 14.1802C31.41 14.2902 30.67 14.5702 30.24 14.0602C30.2 14.0202 30.16 13.9802 30.2 13.9402V13.9402Z" fill="white"/>
<path d="M29.85 17.6801C30.16 17.5701 30.47 17.6801 30.74 17.6801C32.2766 17.8717 33.7356 18.465 34.97 19.4001C34.7945 19.2449 34.6721 19.0385 34.62 18.8101C34.62 18.8101 34.62 18.8101 34.7 18.8101C34.7 18.5801 34.47 18.4301 34.43 18.2301C34.4471 18.206 34.4695 18.1862 34.4955 18.1724C34.5216 18.1585 34.5505 18.1509 34.58 18.1501C34.8431 18.3965 35.0779 18.6715 35.28 18.9701C35.44 18.8901 35.59 18.9701 35.71 19.0901C35.83 19.2101 35.79 19.5201 35.98 19.6701C35.98 20.1401 36.56 20.4101 36.56 20.8801C36.56 21.0001 36.72 20.8801 36.76 20.9601L37.22 21.5401C37.1928 21.5925 37.186 21.6532 37.2007 21.7104C37.2155 21.7676 37.2508 21.8173 37.3 21.8501C37.49 21.9301 37.65 21.7001 37.84 21.7401C38.03 21.7801 37.84 22.1301 37.84 22.3201C37.96 22.3201 38.11 22.2401 38.19 22.3201C38.27 22.4001 38.04 22.5901 38 22.7101C37.96 22.8301 38.15 22.8301 38.27 22.8701C38.3025 22.8697 38.3346 22.8771 38.3636 22.8919C38.3926 22.9067 38.4175 22.9284 38.4362 22.955C38.4549 22.9816 38.4669 23.0123 38.471 23.0446C38.4752 23.0768 38.4714 23.1096 38.46 23.1401C38.85 23.5701 38.35 24.0001 38.54 24.4201C38.5769 24.5555 38.5788 24.6981 38.5455 24.8346C38.5123 24.971 38.445 25.0967 38.35 25.2001C38.35 25.5501 38.04 25.7501 37.92 26.0601L37.53 26.1401C37.34 26.3301 37.73 26.6101 37.53 26.7601H38.43L38.35 26.6801C38.2908 26.4941 38.27 26.298 38.2889 26.1038C38.3078 25.9095 38.366 25.7211 38.46 25.5501C38.5328 25.2362 38.6803 24.9446 38.89 24.7001C38.89 24.7001 39.05 24.5801 39.09 24.7001C39.1115 24.9789 39.0705 25.2591 38.97 25.5201C39.1671 25.9161 39.2469 26.3602 39.2 26.8001C39.9628 26.7604 40.7272 26.7604 41.49 26.8001L41.41 26.6501C41.3254 25.2377 40.9866 23.8522 40.41 22.5601C40.25 22.5601 40.13 22.7101 39.94 22.6301C39.75 22.5501 39.82 22.5601 39.86 22.4801C39.5963 22.1305 39.3125 21.7966 39.01 21.4801C38.62 21.4801 38.43 21.0501 38.08 21.0201C37.73 20.9901 37.96 20.3501 37.49 20.5101C37.3645 20.4725 37.2516 20.4015 37.1635 20.3046C37.0754 20.2077 37.0154 20.0886 36.99 19.9601C37.0002 19.7471 36.9572 19.5349 36.8646 19.3428C36.772 19.1507 36.633 18.9848 36.46 18.8601C36.19 18.7501 36.08 19.1401 35.77 19.0601C35.46 18.9801 35.69 18.7901 35.65 18.6301C35.61 18.4701 35.45 18.4401 35.49 18.2801C35.88 17.7701 35.03 17.8101 35.22 17.2801C35.22 16.9201 34.83 16.8101 34.64 16.5401C33.4391 15.9758 32.1566 15.6045 30.84 15.4401C30.5224 15.4672 30.2027 15.4298 29.9 15.3301L29.98 15.4801C29.89 16.2401 29.92 17.0201 29.85 17.6801Z" fill="white"/>
<path d="M29.07 25.1999C28.9505 25.3594 28.8006 25.4936 28.629 25.5949C28.4573 25.6961 28.2673 25.7624 28.07 25.7899C27.96 25.8999 27.99 26.1799 27.76 26.1799C27.68 26.3299 27.41 26.4499 27.53 26.7199C27.4515 27.0135 27.4112 27.316 27.41 27.6199C26.95 27.8899 27.1 27.2299 26.83 27.0699L26.75 27.1899C26.67 27.1899 26.6 27.1899 26.52 27.1099C26.44 27.0299 26.32 27.1099 26.29 27.1099C26.26 27.1099 26.01 27.4199 26.05 27.6599C26.09 27.8999 25.78 27.7399 25.82 27.8899C26.0847 27.8915 26.348 27.851 26.6 27.7699C26.79 27.7699 26.95 27.6999 27.1 27.6999C27.1397 27.7116 27.1738 27.7373 27.1958 27.7723C27.2179 27.8073 27.2265 27.8491 27.22 27.8899H27.3C27.3621 27.8489 27.4073 27.787 27.4275 27.7154C27.4477 27.6438 27.4415 27.5673 27.41 27.4999C27.41 27.3499 27.61 27.3499 27.72 27.3099C27.83 27.2699 27.72 27.4599 27.72 27.5399C28.07 27.6599 27.64 27.9299 27.6 28.1299C27.56 28.3299 27.6 28.6299 27.29 28.5499C27.29 28.5499 27.22 28.4799 27.22 28.4399C27.2211 28.5093 27.2389 28.5773 27.272 28.6382C27.3051 28.6992 27.3524 28.7512 27.41 28.7899C27.64 28.5899 27.64 28.2799 27.96 28.2399C28.11 28.0899 27.88 27.8099 28.11 27.6599C28.54 27.6599 28.96 27.4599 29.27 27.8099C29.27 27.9699 29.2 28.0099 29.27 28.1299C29.2232 28.3285 29.1308 28.5134 29 28.6699C29.0185 28.7237 29.0209 28.7819 29.0066 28.837C28.9924 28.8921 28.9623 28.9418 28.92 28.9799C28.81 29.4499 28.26 29.2199 27.92 29.4099C28.4236 29.7808 29.0483 29.9486 29.67 29.8799C30.02 29.8799 29.86 29.4499 30.02 29.2599C30.14 28.7099 30.64 29.0999 30.95 28.9399C31.0826 28.711 31.174 28.4605 31.22 28.1999C31.1259 28.1403 31.0556 28.0498 31.0209 27.944C30.9863 27.8382 30.9895 27.7236 31.03 27.6199C30.91 27.4199 30.91 27.1099 30.6 27.0699C30.5797 27.0424 30.5687 27.0091 30.5687 26.9749C30.5687 26.9407 30.5797 26.9074 30.6 26.8799C30.6 26.7199 30.76 26.6399 30.8 26.5299C30.6 26.4099 30.68 26.1399 30.68 25.9799C30.37 26.0599 30.33 25.6699 30.1 25.5899C30.1 25.3999 29.86 25.3999 29.67 25.3599C29.28 25.5499 29.24 25.0899 28.93 24.9699C28.93 24.8899 28.85 24.7699 28.93 24.6999C29.01 24.6299 29.24 24.6999 29.44 24.6999L29.32 24.6199C29.2 24.4599 28.93 24.6199 28.74 24.6199C29.03 24.7399 28.99 25.0099 29.07 25.1999Z" fill="white"/>
</g>
<defs>
<clipPath id="clip0">
<rect width="59" height="120" fill="white"/>
</clipPath>
</defs>
</svg>
