<?xml version="1.0" encoding="utf-8"?>
<!-- Generator: Adobe Illustrator 25.1.0, SVG Export Plug-In . SVG Version: 6.00 Build 0)  -->
<svg version="1.1" id="Layer_1" xmlns="http://www.w3.org/2000/svg" xmlns:xlink="http://www.w3.org/1999/xlink" x="0px" y="0px"
	 viewBox="0 0 122.9 250" style="enable-background:new 0 0 122.9 250;" xml:space="preserve">
<style type="text/css">
	.st0{fill:#FFFFFF;}
	.st1{fill:#016FB5;}
</style>
<g>
	<path class="st0" d="M121.7,1.2H1.3v120.7h120.4V1.2z"/>
	<path class="st0" d="M58.9,127.6H0.7v58.3h58.1V127.6z"/>
	<path class="st0" d="M121.9,127.6H63.7v58.3h58.1V127.6z"/>
	<path class="st0" d="M58.9,191.2H0.7v58.3h58.1V191.2z"/>
	<path class="st0" d="M121.9,191.2H63.7v58.3h58.1V191.2z"/>
	<path class="st1" d="M0.1,126.9v59.7h59.6v-59.7H0.1z M44.5,160c0,12.3-6.5,17.2-15,17.2c-8.2,0-14.3-4.6-14.3-17v-23.5h5.2v23.6
		c0,8.8,4,12.7,9.3,12.7c5.8,0,9.7-3.9,9.7-12.7v-23.6h5.2V160z"/>
	<path class="st1" d="M63.3,126.9v59.7h59.6v-59.7H63.3z M108,176.7h-5.2l-12.6-20.2c-2.7-4.5-5.4-9-7.4-13.3l-0.2,0.1
		c0.3,5,0.3,9.8,0.3,16.5v17h-4.9v-39.9h5.7l12.7,20.1c2.9,4.6,5.3,8.8,7.1,13l0.2-0.1c-0.5-5.4-0.6-10.1-0.6-16.3v-16.7h4.9
		L108,176.7L108,176.7z"/>
	<path class="st1" d="M92.1,204.1c-2.3,0-4,0.2-4.9,0.4V220c1.1,0.3,2.6,0.4,4.2,0.4c6.2,0,9.9-3.1,9.9-8.4
		C101.5,206.7,97.8,204.1,92.1,204.1z"/>
	<path class="st1" d="M63.3,190.3v59.7h59.6v-59.7H63.3z M103.5,219.9c-2.7,2.9-7.1,4.4-12.1,4.4c-1.5,0-3-0.1-4.1-0.3v16h-5.2
		v-39.3c2.5-0.5,5.7-0.8,9.9-0.8c5.1,0,8.8,1.2,11.2,3.3c2.2,1.9,3.6,4.8,3.6,8.4C106.7,215,105.6,217.9,103.5,219.9z"/>
	<path class="st1" d="M26,203.8c-2.7,0-4.7,0.2-6,0.6v31.5c1.3,0.2,3.2,0.2,5.2,0.2c11,0.1,16.9-6.2,16.9-16.9
		C42.2,209.7,36.9,203.8,26,203.8z"/>
	<path class="st1" d="M0,190.3V250h59.6v-59.7H0z M41.8,234.5c-3.8,3.7-9.9,5.8-17.6,5.8c-3.7,0-6.7-0.1-9.4-0.5v-39.2
		c3.2-0.5,6.9-0.8,11-0.8c7.4,0,12.6,1.6,16.1,4.9c3.6,3.2,5.7,8,5.7,14.4C47.5,225.5,45.4,230.8,41.8,234.5z"/>
	<path class="st1" d="M74.7,44.3l-0.1,0.2c-1.5,1.5-3.2,3.2-4.6,4.8c0.1,0.2,0.2,0.4,0.4,0.5c0.1-0.4,0.2-0.7,0.3-1.1
		c0.4-0.6,1-0.2,1.5-0.1c0.8-0.2,1.5,0.2,2.3,0.2c0.6,0.3,0.6,1.1,1.2,1.4c0.2,0.2,0,0.5-0.2,0.6c0.2,1.2,0.7-0.3,1.4,0
		c0.2,0.1,0.6,0.1,0.8,0.3c0.1,0.5,0.7,0.4,0.7,0.9c-0.1,0.2-0.3,0.3-0.5,0.4c0.2,0.5-0.5,0.8-0.2,1.3c1,0.2,1-0.9,1.5-1.4
		c-0.2-0.9-0.4-1.7-0.9-2.5c-0.6-0.1-0.9-0.7-1.4-0.9c-1.1-0.4,0.2-1.1,0-1.7C76.3,46.2,75.4,45.3,74.7,44.3z"/>
	<path class="st1" d="M80.9,61.8C80.1,64,79.4,66.2,78,68c-0.6,0.6-1.1,1.6-1.8,2l1.5,1.3c0.1-0.1,0-0.2,0.1-0.3
		c0-0.2,0.1-0.4,0.3-0.4c0.7,0,0.7,0.7,1.1,1.1c-0.1,0.6,0.5,1.1,0.2,1.7c4.1-4.4,6.2-9.7,6.6-15.7l0.2-0.2c-1.5,0.2-3,0.1-4.5,0.1
		l-0.3-0.1c0.1,1-0.2,1.9-0.2,2.9l0.6,0.6c0.2,0.2,0.1,0.6-0.1,0.7C81.3,61.9,81.1,61.9,80.9,61.8z"/>
	<path class="st1" d="M75.1,77.4l0.2-0.3c1-0.7,2-1.5,2.9-2.4h0.1c-0.2-0.1-0.4,0.2-0.6,0c-0.5-0.2-0.6-0.6-0.6-1.1l-2-2.1L75,71
		c-0.2,0.4-0.4,0.6-0.7,1c0,0.2-0.1,0.6,0.2,0.8c0.6,0.2,1.5,0.6,1.6,1.4c-0.2,0.7-1.6,1.4-0.8,2.2C75.7,76.9,75,77,75.1,77.4z"/>
	<path class="st1" d="M63.3,68.8c0.4,0.1,0.2,0.6,0.4,0.7c0.6-0.2,1.2,0.6,1.7,0.1c0-0.8,0.8-0.7,1.3-0.9c0.7-0.4,1.5-1.1,1.5-2
		l-0.1-0.2c-0.5,0-0.8,0.4-1.1,0.7c-0.5,0.2-0.7-0.5-1.1-0.3c0,0.1,0.1,0.1,0.2,0.2c0.1,0.1,0.2,0.3,0,0.5c-0.6,0.5-0.8-0.2-1.4-0.2
		v0.2c0,0.1,0,0.3-0.2,0.2c-0.3-0.6-1-0.3-1.3-0.8c-0.2-0.1-0.4,0-0.6,0.2c-0.1,0.2-0.6,0-0.5,0.4c-0.4,0.2-0.5,0.6-0.7,0.9
		c-0.5-0.1-0.7,0.5-1.2,0.5c0.1,0.1,0,0.2,0.2,0.2c0.3,0.2,0.6,0.2,1,0.1C61.9,68.3,62.7,69,63.3,68.8z"/>
	<path class="st1" d="M60.4,83.3l0.2-0.2l-0.5,0.2c-6.4-0.4-12-2.7-16.7-7.2l-0.1,0.2l-3.3,3.4c5.1,4.5,10.8,7.3,17.5,8.2
		c1.1,0.2,2.3,0.1,3.2,0.4l-0.2-0.4V83.3z"/>
	<path class="st1" d="M63.4,50.7c0.4,0.2,0.6-0.2,0.9-0.2c0.5,0.1,0.8,0.4,1.1,0.7c0.3,0.2,0.6-0.1,0.8-0.2c0.2-1.4,1.9-1.1,2.4-2.4
		l-0.3,0.1c-0.2-0.2-0.5-0.1-0.4-0.4c0.2-0.2,0.6-0.6,1-0.8c-1.5-0.9-3-1.7-4.7-2.1c-0.6-0.2-1.4-0.2-1.9-0.4c0.3,1,0,2.4,0.2,3.4
		l1.2,0.4c0.3-0.6,1.1-0.6,1.5-1.2c0.2-0.2,0.5,0,0.6,0.2c0.1,0.4-0.1,0.9-0.2,1.3C65,50,64,50.1,63.4,50.7z"/>
	<path class="st1" d="M73.9,67.4c0.1,0.6-0.6,0.8-0.5,1.3c-0.2,0.2-0.6,0.2-0.9,0.2c-1.3-0.5-2.7-0.8-4.1-1
		c-0.2,0.1-0.2,0.2-0.2,0.3c0.6,0.3,1.3,0.3,1.9,0.6c0.6,0.2,1,0.8,1.6,0.6c0.6-0.3,1.5,0.2,1.9-0.4c-0.1-0.6,0.5-1.1,0.7-1.5
		l0.2-0.1c0.3,0.3,0.3,0.9,0.5,1.2c0.5-0.5,0.8-1.1,1.2-1.5c1.1-1.5,2-3.2,2.4-5c-0.4,0-0.9,0.1-1.3,0.2c-0.5,0-1.1,0.2-1.5-0.1
		c-0.2-0.2-0.2,0.1-0.2,0.2c-0.2,0.2-0.3,0.6-0.7,0.4c-0.3-0.2-0.3-0.4-0.4-0.6c0,0.2-0.1,0.3-0.1,0.5c-0.3,0.3-0.5,0.7-0.7,1.1
		c-0.3,0.4-0.9,0.2-1.3,0.6c-0.1,0.8-1,0.6-1.5,0.9c0,0.1,0.1,0.1,0.2,0.2c0.2,0.1,0.6,0.1,0.7-0.2c0.7,0.2,0.6-0.7,1-1
		c0.3-0.1,0.6-0.3,1.1-0.1c0.3,0.4,0.4,1.1,0.4,1.6C74,66.2,74.2,66.9,73.9,67.4z"/>
	<path class="st1" d="M66.4,65.7c0.4-0.4,1.2-0.4,1.3-1c-0.6-0.1-0.9,0.2-1.3,0.6C66.3,65.3,66.1,65.6,66.4,65.7z"/>
	<path class="st1" d="M62.4,81.5c1.2-0.4,2.6-0.3,4-0.6c-0.2-0.1-0.5-0.2-0.7-0.4c-0.8-0.1-1.1-0.9-1.4-1.5
		c-0.1-0.4,0.2-0.8,0.3-1.2c-0.3-0.6-1.4-0.2-1.9-0.4c-0.2-0.1-0.3-0.3-0.6-0.3l0.2,0.3C62.4,78.8,62.5,80.2,62.4,81.5z"/>
	<path class="st1" d="M79.7,75.6c-0.5,0.9-1.5,1.5-2.3,2.2c-1.1,1.1-2.8,1.3-3.3,2.8c-0.6,0.5-0.8,1.4-1.5,1.6
		c-0.3,0.8-1.1,0.7-1.6,1.3c-1.4,1.2-2.3-0.8-3.5-1.1l-2.5,0.4c-0.9,0-1.7,0.3-2.6,0c0.1,1.7,0.1,3.5,0,5.1l0.3-0.2
		c7.9-0.3,14.7-3.3,20.5-8.7l-3.5-3.3L79.7,75.6z"/>
	<path class="st1" d="M76.7,57.4l0.5,0.5c0.5,0.3,0.2,1.1,0.7,1.4c0.6,0.3,0.9,1.1,1.1,1.6c0.1-0.2,0.1-0.3,0.2-0.5
		c0.2-0.9,0.2-1.9,0.5-2.8C78.8,57.7,77.6,57.8,76.7,57.4z"/>
	<path class="st1" d="M67.4,39.6c-1.6-0.6-3.5-0.8-5.3-1.1l0.2,0.3v4.5l0.4-0.1c2.7,0.4,5.2,1.2,7.4,3l0.1,0.3
		c0.7-1.1,1.9-1.9,2.7-2.9l0.8-0.5L73.3,43C71.6,41.6,69.5,40.4,67.4,39.6z"/>
	<path class="st1" d="M59.7,68.3c0.1-0.4-0.1-1,0.2-1.4c0.2-0.3,0.6-0.3,1-0.2c0.2,0,0.3-0.2,0.2-0.4c-0.5-0.1-0.2-0.6-0.4-0.9
		c0-0.2,0.3-0.2,0.2-0.3c-0.3-0.2,0.2-0.6-0.1-0.8c0.1-0.1,0.2-0.2,0.2-0.2c-1,0.4-2-0.2-2.9-0.6c-0.4-0.2-1.1-0.5-1.1-1.1
		c-0.7,1.1-2,2.2-3,3.2C55.6,67,57.5,67.9,59.7,68.3z"/>
	<path class="st1" d="M37,58l0.3,3c0.2,1.1,0.6,2.3,0.6,3.4c0.2-0.2,0.1-0.7,0.5-0.8c-0.2-0.3,0.3-0.6,0.1-1c0.2-0.8,0.2-1.6,1-2.2
		c0.8,0,0.9-1.1,1.7-1.2c0.4,0,0.7,0.6,0.9,0.7c-0.6-0.6-0.5-1.7-0.3-2.4l-0.3,0.2c-1.5,0-3.1,0.1-4.5-0.1L37,58z"/>
	<path class="st1" d="M55.8,61.2L55.2,61c-0.1,0.4-0.4,0.8-0.6,1.1h0.1C55.1,61.8,55.3,61.3,55.8,61.2z"/>
	<path class="st1" d="M42.3,74.8c-0.6-0.4-1.1-1.1-1.5-1.5c-0.6-0.2-1.1-0.5-1.4-1.1c-0.2-0.2,0-0.5-0.2-0.6l-0.2,0.2
		c-0.6,0.2-0.8-0.3-1.2-0.6c-0.5-0.2-0.2-1.2-1-1.1c-0.2,0-0.3-0.3-0.5-0.5c-0.6,0.1-0.8-0.6-1.1-1c-0.1,0.2,0,0.3-0.2,0.4
		c-0.6,0.2-0.9-0.6-1.3-1c-0.1,0.1-0.2,0.2-0.3,0.2c-0.4-0.3-0.6-0.8-0.6-1.4c-0.6-0.6-0.3-1.5-0.2-2.4c0.1-0.2,0.4-0.3,0.3-0.6
		c0.2-0.3,0.5-0.4,0.9-0.4c0.2,0.1,0.2,0.2,0.3,0.3c0.2-0.2,0.6,0,0.5-0.5c0.2-0.2,0.7-0.3,1.1-0.4c0.2,0.3,0.4,0.7,0.7,1.1
		l-0.2-0.3c-0.4-1.6-0.7-3.2-0.8-5c0-0.1-0.2-0.2-0.1-0.2v0.1c0-0.3,0-0.6,0.1-0.9L35,57.9h-4.5c0.2,5.3,1.6,10.1,4,14.4
		c1.1,2.2,2.8,4.1,4.4,6.2l3.2-3.4L42.3,74.8z"/>
	<path class="st1" d="M60,76.9c-4-0.2-7.4-1.6-10.6-4c0.1,0.4,0.6,0.6,0.5,1.1c-0.2,0.4-0.9,0.5-1.3,0.4c-1-0.2-1.6,0.6-2.5,0.6
		c-0.8,0.2-1.1-0.7-1.8-0.6c4.5,4,9.8,6.5,15.8,6.8l0.5,0.3L60.5,81v-4.3L60,76.9z"/>
	<path class="st1" d="M47.5,36.4c-1.1,0.7-1.9,1.6-3,2.3c1.2,0.7,2.2,2,3.3,3.1l0.1,0.3c2.7-2.7,6.1-4.2,9.9-5
		c0.9-0.1,1.7-0.4,2.6-0.2c-0.1-1.5-0.2-3.2,0-4.7C55.6,32.5,51.3,33.8,47.5,36.4z"/>
	<path class="st1" d="M52.2,60.5c-0.2-0.1-0.2-0.1-0.3,0.1c-0.1,0-0.2,0-0.2,0c0-1-1.1-0.4-1.5-0.9c0.5,0.9,0.7,1.8,1.2,2.7
		c0.3,0.7,1,1.4,1.2,2.1c0.3-0.6,1-1.1,1.4-1.6c0-0.2,0-0.5-0.2-0.6c-0.2-0.3,0-0.8-0.2-1.1c-0.4,0.2,0.2,0.6,0,0.8
		c-0.2,0.1-0.4,0-0.4-0.2c-0.4-0.1-0.6-0.4-0.8-0.7C52.6,60.7,52.2,60.6,52.2,60.5z"/>
	<path class="st1" d="M43.7,53.6c-0.2,0.8-0.1,1.7-0.4,2.4c0.6-0.2,1.4-0.2,2-0.1c-0.4-0.2-0.1-0.6-0.2-1c-0.1-0.4-0.1-0.9,0.2-1.2
		c-0.1-0.6,0.6-1.1,0.7-1.6c0.2-0.6,1-0.2,1.4-0.6c0.2-0.2,0-0.3,0-0.6c0.3-0.4,0.8-0.4,1.2-0.6c0.2-0.4,0.6-0.9,1.1-1.1
		c1,0,1-1.4,1.9-1.4c-1.3-1-2.5-2.3-3.6-3.4C45.8,47.2,44.3,50.2,43.7,53.6z"/>
	<path class="st1" d="M43.3,40.1l-1.8,2.3c-2.9,4-4.3,8.6-4.7,13.6l4.4-0.1l0.4,0.2c-0.2-0.1-0.2-0.3-0.2-0.5
		c0.3-4.7,2-8.8,5.3-12.3c-1.2-1.1-2.4-2.2-3.5-3.5V40.1z"/>
	<path class="st1" d="M44.3,60.2c0.1-0.3-0.4-0.4-0.3-0.6c0.3-0.6,0-1.6,0.8-1.9c-0.6,0.1-1.1,0.2-1.5-0.2l0.2,0.4
		c0,1.1,0.5,2.1,0.2,3.2C43.8,60.9,43.9,60.5,44.3,60.2z"/>
	<path class="st1" d="M46,57.7l-0.2,0.9c-0.2,0.5-0.8,0.2-1.1,0.5c-0.2,0.3,0,0.6,0.2,1c-0.5,1.1,1.1,1.4,1.1,2.4
		c0.5,0.6-0.1,1.5,0.6,1.9c0.2,1.1-0.2,2.5,0.8,3.3l0.2,1.1c0.2,0.7-0.8,0.5-0.7,1.1c0.2-0.1,0.2,0.2,0.2,0.2c1.3-1.5,2.7-3,4.2-4.3
		l-0.6-0.6c-1.1-1.7-2.1-3.6-2.5-5.6l-0.5-0.2c0,0.5-0.2,1-0.2,1.5l-0.1,0.1c-0.3,0-0.6-0.3-0.9-0.5c-0.1-0.2-0.2-0.5,0-0.6
		c0.2,0,0.2,0,0.4,0.1c0.2-0.2,0.1-0.4,0.2-0.6c0.1-0.4-0.3-0.7-0.1-1.1c0.3,0,0.6,0.3,0.6,0.6c0.3,0.1,0.6-0.2,0.8-0.2
		c0-0.2,0.4-0.6,0-0.8c0.2-0.6,0.1-1.3,0-1.9c-0.2-0.6-0.8-0.4-1.2-0.4c-1.3,0.4,0.2,1.5-0.1,2.3C46.8,58,46.3,57.5,46,57.7z"/>
	<path class="st1" d="M57.2,70.8c0.3-0.4,0.8-0.6,1.2-0.8c-1.5,0.3-2.7-0.7-4-1.3c-0.7-0.5-1.6-1-2-1.7c-1,1.2-2.1,2.4-3.2,3.3
		c0.5,0,0.8,0.6,1.2,0.8c2.4,2,5.5,3,8.4,3.7L58,74.5c-0.6-0.6-1.5-1.5-1.5-2.4C57.1,71.8,57,71.2,57.2,70.8z"/>
	<path class="st1" d="M80.1,38.6c0.3,0.1,0.4,0.5,0.6,0.7c1.2,0.6,1.5,1.9,2.6,2.7c0.6,1.2,1.9,2.2,2,3.6c1.5,3.2,2.4,6.5,2.5,10.2
		l-0.2,0.2c0.2,0,0.2-0.1,0.4-0.2l4.7-0.1c-0.3-0.5-0.2-1.1-0.2-1.7c-0.6-7.3-3.7-13.6-8.7-19.1c-0.9,1.2-2.1,2.4-3.2,3.5L80.1,38.6
		z"/>
	<path class="st1" d="M35.3,56l-0.1-0.6c0.3-5.3,2-9.9,4.9-14c0.7-0.8,1.3-1.9,2.2-2.5c-1.1-1-2.2-2.2-3.3-3.2L39,35.1
		c-4.7,5.2-7.5,11.1-8.4,17.9c-0.2,1-0.1,2-0.2,3C31.9,55.8,33.7,55.8,35.3,56z"/>
	<path class="st1" d="M43.6,37.6l0.1-0.2c4.8-4.4,10.4-6.7,16.7-7.1l-0.2-0.4l-0.1-4l0.2-0.5c-6.6,0.2-12.5,2.5-17.6,6.2
		c-1,0.6-1.9,1.7-2.9,2.4h0.2C41.2,35,42.5,36.4,43.6,37.6z"/>
	<path class="st1" d="M60.4,45.1c-2.7,0.3-5.1,1.2-7,3.3h0.3c0.4,0.4,1.1,0.3,1.3,0.8c0.2,0.3-0.2,0.2-0.2,0.5
		c0.1,0.1,0.2,0.1,0.2,0.2c0.3,0.1,0.2-0.2,0.3-0.3c0.4-0.4,0.5,0.4,0.9,0.4c0.2-0.2,0.6-0.2,0.9,0.1c0.2-0.2,0.8,0,0.9-0.4
		c0.5-0.6,0.2-1.4,1-1.7c0.2,0.2,0,0.4,0.1,0.6c0.5,0.2,1.1-0.4,1.5,0.1C60.2,47.6,60.4,46.3,60.4,45.1z"/>
	<path class="st1" d="M0.1,0v123.1h122.8V0H0.1z M105.5,64.1c-1.7,2.4-3.8,4.7-5.4,7.2c0.2-1.9,0.4-4.4-0.3-6.2
		c-1.3-4.1-2.5-8.1-2.8-12.5l0.1-1.7c1,4.5,5.4,7.6,5.2,12.7c0.1,1.2-0.2,2.3-0.5,3.3l0.1,0.1l0.2-0.2c0.6-2.5,1-5.1,2-7.4
		c1.5-3.3,3.2-6.7,2.5-10.7C108.5,53.3,107.9,59.7,105.5,64.1z M102.8,38.6c2.9,4,3.6,10.2,1.5,14.7c-0.8,1.9-1.4,4-1.6,6.1
		c-0.2-0.3-0.2-0.9-0.3-1.3c-1.1-4.4-5.3-7.5-7-11.8c-0.6-1.4-1-2.8-1.3-4.2c1.9,3.4,6.4,5.2,7.6,8.9c0.5,1,0.5,2.1,0.8,3.2
		c0.1,0,0.2-0.1,0.2-0.1c-0.6-3.9-0.4-7.9,0.2-11.7c0-2-0.2-4.1-1.4-5.7C101.9,37.1,102.2,37.9,102.8,38.6z M100.7,37.8
		c0.8,3.4-0.3,6.8,0.3,10.3c-1.9-3.7-5.8-5.4-8.6-8.4c-1.6-1.8-2.3-3.9-2.7-6.2c1.5,3.8,5.8,4.6,8.2,7.8c0.8,0.7,1.1,1.8,1.6,2.6
		l0.1-0.1c-1.4-3-1.9-6.3-2.8-9.5c-0.5-1.4-1.5-2.8-2.7-3.6C97.3,31.4,100,34.7,100.7,37.8z M92.2,30c2.4,2.1,3.5,5,4.2,7.8l0.4,0.9
		c-3.5-2.5-6.6-5.9-8.9-9.4l-2.7-2.8C87.6,27.4,90.2,28.1,92.2,30z M46.6,27.3c4.5-2.3,9.5-3.4,14.9-3.6c12.4,0,24.2,7.3,29.5,18.8
		c3.4,6.6,4.4,15.7,2.2,23.1c-2.3,8.8-9.6,17.7-18.2,21.3c-9.6,4.7-23.4,3.6-32-2.6C31.1,76,26.1,61.8,29.8,47.8
		C31.9,39.4,38.6,31.1,46.6,27.3z M37.1,26.9c-2.4,2.1-4,4.8-5.9,7.3c-1.6,1.9-3.6,3.3-5.5,5c1-2,1.1-4.5,2.4-6.3
		C30.2,29.4,33.9,28.2,37.1,26.9z M24,34.3c1.1-1.5,2.7-2.5,4.3-2.9c-3.2,2.3-3,6.2-4,9.6c-0.3,1.2-0.9,2.4-1.2,3.7l0.1,0.1
		c0.6-1.5,1.5-2.8,2.7-4c2.3-2.1,5.7-3.5,6.9-6.6c-0.1,4.4-3.7,7.8-7.2,10.3c-1.5,1.2-2.8,2.7-3.6,4.3c-0.1-1.1,0.2-2.2,0.1-3.4
		C21.6,41.5,21.3,37.1,24,34.3z M17.4,47.3c-0.1-3.9,1.5-7.1,3.8-9.9c0.1,0,0.1-0.1,0.2-0.1c-2.5,3.8-0.4,8.6-0.6,12.9l-0.3,4.4
		c0.1,0,0.1,0.2,0.2,0.1c0.2-0.5,0.2-1.1,0.2-1.5c0.6-3.6,3.6-6.1,6.4-8.5c0.6-0.6,1.1-1.3,1.4-2c-0.2,1.8-0.8,3.6-1.5,5.2
		c-2.1,4.1-6,7.5-6.7,12.2C20.1,55.5,17.1,52.1,17.4,47.3z M15.5,52.8c0.2-1.2,0.5-2.4,1.1-3.6c-1,5.1,2.4,8.8,3.6,13.2
		c0.5,1.6,0.6,3.4,1.3,5c0.1,0,0.1,0,0.2-0.1c-1.7-4.7,0.7-9.1,3.2-12.8c0.6-1,1-2.1,1.2-3.2c0.2,2.1-0.2,4.6-0.6,6.8
		c-0.6,2.8-1.5,5.5-2.3,8.2c-0.5,1.7-0.4,3.7-0.1,5.4l-0.2-0.2c-1.8-3.3-5.3-5.8-6.4-9.5C15.5,59.3,15,56,15.5,52.8z M15.4,62.9
		c0.4,5.4,6.2,8.3,8.9,12.8c0.6,0.9,1.2,1.9,2,2.7c-0.2-0.6-0.6-1.1-0.9-1.6c-1-1.9-1.3-4.1-1.1-6.4c0.2-2.8,1.5-5.4,1-8.3
		c2.3,5.1,1.6,11.5,3,17.1c0.3,1.2,1.1,2.3,1.5,3.5c-4.9-3.3-11.6-6.5-13.7-12.6C15.3,67.9,15.2,65.3,15.4,62.9z M18.3,75.3
		c2.7,6.2,9.5,6.7,14.1,10.5c0.8,0.7,1.7,1.4,2.7,1.8l0.1-0.1c-1.1-1-2.3-2-3-3.2c-2.7-3.7-1.7-8.9-3.7-13c1.8,2.2,3.5,4.5,4.6,6.9
		c1.6,4.1,2.3,8.6,6.1,11.7c-4.1-1.4-8.9-1-12.5-3.5C22.6,84,19,79.9,18.3,75.3z M25.3,86.9c4.4,5,11.5,3.3,17.3,4.6
		c0.8,0.1,1.5,0.4,2.4,0.3c-0.7-0.4-1.6-0.4-2.4-0.8c-4.5-1.6-5.3-6.6-7.7-9.9c3.2,2.1,5.8,5,8.7,7.7c2.1,1.9,4.6,2.7,7.3,3.2
		c-0.6,0.2-1.5,0.2-2.2,0.3c-4.8,1.2-10.1,3.1-15.1,1.4C30.3,92.7,26.9,90.1,25.3,86.9z M84.5,98.5c-4.9,1.9-10-0.1-13.9-3
		c-1.5-1-2.9-2.4-4.9-2.3c-0.7,0-1.5,0-2,0.2c3.7,1.7,7.2,4.1,10.4,7.2c-0.6,0.6-1.2,1.2-1.9,1.7c-3.1-3.3-6.5-6.5-10.2-8.4
		c-0.7,0.1-1.5,0.6-2.1,0.9c-3.1,1.9-6.1,4.5-8.4,7.5l-1.9-1.6c3.2-3.2,6.6-5.7,10.4-7.5c-3.7-1.2-6.1,1.9-9,3.6
		c-3.3,2.3-8.1,3.4-12,1.8c-2.2-0.8-4.2-2-5.8-4c3.2,2.2,7.8,2.4,11.4,1c4.8-2.1,9.8-4.7,15.5-3.5c0.9,0,1.8,0.9,2.7,0.2
		c4.3-1.1,9.1-0.3,12.9,1.6l3.8,1.5c3.6,1.3,8.1,1,11.2-1.2C88.8,96.3,86.7,97.6,84.5,98.5z M89.8,93.3c-5.5,2.1-11.1-0.5-16.3-1.3
		l-1.1-0.2c2.5-0.6,5-1.3,7-3.2c3-2.8,5.6-5.8,8.9-8c-2.4,3.2-2.7,7.6-6.7,9.6c-1,0.6-2.3,0.8-3.3,1.3c1.5,0,2.8-0.5,4.3-0.6
		c5.4-0.9,11.6,0,15.4-4.6C96.5,89.5,92.9,92.2,89.8,93.3z M92.8,87.7c-2.8,0.7-5.8,1-8.6,1.9c4.6-4,4.4-10.1,7.4-14.9
		c1-1.3,1.8-2.8,2.9-4c-1.9,3.8-1.1,8.7-3.2,12.3c-0.8,1.5-2,2.8-3.3,4.1c0.4,0,0.8-0.4,1.2-0.6c3.6-3.5,8.1-4.5,11.9-7.4
		c1.5-1.2,2.9-2.8,3.6-4.5C104.1,80.5,98.3,86,92.8,87.7z M99.8,77.8c-2.2,1.5-4.4,2.8-6.5,4.4V82c3.2-5.4,1.6-12.7,3.6-18.6
		l0.7-1.9c-0.4,3.7,1.2,6.7,1.1,10.5c-0.1,2.2-0.8,4.2-2,5.9h0.2c1.5-2,2.8-4.3,4.6-6.2c2.8-2.8,5.7-5.6,6.1-9.4
		C108.6,68.6,105,74.2,99.8,77.8z"/>
	<path class="st1" d="M88,57.6l-0.2-0.2l0.2,0.4c-0.2,5.4-2.1,10.3-5.2,14.6c-0.6,0.7-1.2,1.6-1.9,2.1c1.2,1,2.6,2.4,3.6,3.6
		l0.2-0.2c5-5.8,7.8-12.3,8.2-20l0.2-0.4l-0.2,0.1L88,57.6z"/>
	<path class="st1" d="M60.2,38.6c-4.1,0.3-7.8,2-10.9,4.6c1.2,0.9,2.3,2.3,3.5,3.2c0.1-0.1,0.2-0.2,0.2-0.3c1.5-1.1,3.2-2.1,5-2.6
		c0.8-0.1,1.6-0.5,2.5-0.2c-0.2-1.5-0.2-3.2,0-4.9L60.2,38.6z"/>
	<path class="st1" d="M62.2,29.8c0-0.2,0.1-0.2,0.2-0.4c0.2-0.2,0.4,0.1,0.5,0.2c0,0.2,0.1,0.6-0.1,0.7c0.2,0,0.3-0.1,0.5-0.1
		c3.7,0.2,7.2,1.4,10.4,3.2v-0.1c0.6-0.3,1.5-0.7,2.1-0.2c0.8-0.3,1,0.6,1.5,0.8c0.8,0.5,1.6,1.3,1.7,2.2c0.2,0.3,0.6,0.5,0.6,0.8
		c0.5-1.1,1.5-1.9,2.5-2.8l0.6-0.2c-4.9-4.7-10.8-7.3-17.4-8.3c-1.1-0.2-2.2-0.1-3.2-0.4C62.4,26.6,62.4,28.4,62.2,29.8z M77,32.1
		c0.3,0.1,0.6,0.2,0.7,0.6c-0.1,0.4,0.3,0.6,0.1,1c-0.9,0.2-1-0.8-1.6-1.1C76,32.5,76,32.3,76,32.1C76.3,31.7,76.7,32.4,77,32.1z
		 M62.9,29.1c0.2-0.2,0.5-0.2,0.7-0.1l2.3-1.1c1,0.1,2,0.2,2.6,1V29c-0.6,0.5-1.4,0.9-2.1,0.6c-1.1,0.2-2.6,0.8-3.5-0.2
		C62.9,29.2,62.8,29.1,62.9,29.1z"/>
	<path class="st1" d="M62.2,36.9c0.6-0.2,1.3,0.1,1.9,0.1c3.2,0.5,6.2,1.5,8.8,3.6c-0.3-0.3-0.6-0.7-0.7-1.2
		c0.1-0.1,0.1-0.1,0.2-0.1c0-0.5-0.5-0.8-0.6-1.2c0.1-0.1,0.2-0.2,0.3-0.2c0.6,0.5,1.1,1.1,1.5,1.7c0.3-0.2,0.6,0.1,0.9,0.2
		c0.5,0.2,0.2,0.9,0.6,1.2c0.1,1,1.2,1.5,1.2,2.5c0,0.2,0.3,0.1,0.4,0.2l1,1.2c-0.2,0.2,0,0.5,0.2,0.6c0.4,0.2,0.7-0.3,1.1-0.2
		c0.6,0.3-0.1,0.8,0,1.2c0.2,0,0.6-0.2,0.7,0.1c0.1,0.3-0.3,0.6-0.4,0.8c0,0.3,0.3,0.2,0.6,0.3c0.3,0,0.5,0.3,0.4,0.6
		c0.8,0.9-0.2,1.8,0.2,2.7c0.2,0.6-0.1,1.1-0.4,1.6c0,0.7-0.6,1.1-0.9,1.8l-0.8,0.2c-0.4,0.4,0.4,1-0.1,1.3H80l-0.2-0.2
		c-0.2-0.7-0.2-1.7,0.2-2.4c0.2-0.6,0.3-1.3,0.9-1.8c0.1,0,0.3-0.2,0.4,0c0,0.6,0,1.2-0.2,1.7c0.5,0.7,0.5,1.7,0.5,2.7
		c1.6-0.1,3.2-0.2,4.8-0.1l-0.2-0.3c-0.2-3-0.9-5.9-2.1-8.5c-0.3,0-0.6,0.3-1,0.2C83,47.1,82.9,47,83,46.8c-0.6-0.6-1.1-1.5-1.8-2
		c-0.8,0.1-1.2-0.9-1.9-1c-0.6-0.2-0.2-1.4-1.2-1.1c-0.5-0.2-1-0.6-1.1-1.1c0-0.9-0.2-1.8-1-2.4c-0.6-0.2-0.8,0.6-1.5,0.4
		c-0.3-0.2-0.2-0.6-0.2-0.9c-0.1-0.2-0.4-0.4-0.3-0.7c0.8-1.1-1-1-0.6-2c-0.1-0.7-0.8-1-1.2-1.5c-2.5-1.1-5.1-1.9-7.9-2.3
		c-0.7-0.1-1.4,0.1-1.9-0.2l0.2,0.3C62.3,33.8,62.3,35.5,62.2,36.9z"/>
	<path class="st1" d="M60.6,52.5c-0.5,0.8-1.3,1-2.1,1.2c-0.2,0.2-0.2,0.8-0.6,0.8c-0.2,0.3-0.7,0.6-0.5,1.1
		c-0.2,0.6-0.2,1.3-0.2,1.9c-1,0.6-0.6-0.8-1.2-1.1l-0.2,0.2c-0.2,0.1-0.3-0.1-0.5-0.2c-0.2-0.1-0.4-0.1-0.5,0
		c-0.2,0.3-0.6,0.6-0.5,1.1c-0.1,0.3-0.6,0.2-0.5,0.5c0.6,0,1.1-0.1,1.6-0.2c0.4,0.1,0.7-0.2,1.1-0.2c0.2,0.1,0.2,0.2,0.2,0.4h0.2
		c0.2-0.2,0.4-0.5,0.2-0.8c0-0.3,0.4-0.3,0.6-0.4c0.2,0.1,0.1,0.3,0.1,0.5c0.7,0.2-0.2,0.8-0.2,1.2c-0.2,0.3,0,1.1-0.6,0.9
		c-0.1,0-0.2-0.2-0.2-0.2h-0.1c0,0.2,0.2,0.6,0.4,0.7c0.5-0.4,0.5-1.1,1.1-1.1c0.3-0.3-0.2-0.9,0.3-1.2c0.9,0,1.8-0.4,2.4,0.3
		c-0.1,0.3-0.2,0.4,0.1,0.6c-0.2,0.4-0.2,0.8-0.6,1.1c0.1,0.2,0,0.5-0.2,0.6c-0.2,1-1.4,0.5-2,0.9c1.1,0.8,2.3,1.1,3.6,1
		c0.7,0,0.4-0.9,0.7-1.3c0.2-1.1,1.3-0.3,1.9-0.6c0.2-0.5,0.5-1,0.6-1.5c-0.4-0.2-0.6-0.7-0.4-1.2c-0.2-0.4-0.2-1.1-0.9-1.1
		c-0.1-0.2,0-0.3,0.1-0.4c0-0.3,0.3-0.5,0.4-0.7c-0.4-0.2-0.2-0.8-0.2-1.1c-0.6,0.2-0.7-0.6-1.2-0.8c-0.1-0.4-0.5-0.4-0.9-0.5
		c-0.8,0.4-0.9-0.6-1.5-0.8c-0.1-0.2-0.2-0.4,0-0.6c0.3-0.2,0.6,0,1.1-0.1l-0.2-0.2c-0.2-0.3-0.8-0.1-1.2,0
		C60.5,51.5,60.4,52.1,60.6,52.5z"/>
</g>
</svg>
